<svg xmlns="http://www.w3.org/2000/svg" viewBox="0 0 360 270">
  <g stroke="#4a6fa5" stroke-width="2" fill="none" stroke-linejoin="round" stroke-linecap="round">
    <line x1="70" y1="200" x2="140" y2="150" stroke-dasharray="4 3"/>
    <line x1="140" y1="150" x2="280" y2="150" stroke-dasharray="4 3"/>
    <line x1="140" y1="150" x2="140" y2="60" stroke-dasharray="4 3"/>
    <!-- Заштрихованное сечение -->
    <polygon points="210,200 280,150 280,60 210,110" fill="#4a6fa5" fill-opacity="0.12"/>
    <polygon points="70,110 210,110 280,60 140,60"/>
    <line x1="70" y1="110" x2="70" y2="200"/>
    <line x1="210" y1="110" x2="210" y2="200"/>
    <line x1="280" y1="60" x2="280" y2="150"/>
    <line x1="70" y1="200" x2="210" y2="200"/>
    <line x1="210" y1="200" x2="280" y2="150"/>
  </g>
  <g fill="#4a6fa5" font-family="system-ui, sans-serif" font-size="15">
    <text x="52" y="212">A</text>
    <text x="215" y="212">B</text>
    <text x="288" y="158">C</text>
    <text x="125" y="158">D</text>
    <text x="135" y="218">4 cm</text>
    <text x="252" y="188">3 cm</text>
    <text x="218" y="158">H = 10 cm</text>
  </g>
</svg>